<?xml version="1.0" standalone="no"?>
<!DOCTYPE svg PUBLIC "-//W3C//DTD SVG 20010904//EN"
 "http://www.w3.org/TR/2001/REC-SVG-20010904/DTD/svg10.dtd">
<svg version="1.0" xmlns="http://www.w3.org/2000/svg"
 width="725.000000pt" height="725.000000pt" viewBox="0 0 725.000000 725.000000"
 preserveAspectRatio="xMidYMid meet">
<metadata>
Created by potrace 1.14, written by Peter Selinger 2001-2017
</metadata>
<g transform="translate(0.000000,725.000000) scale(0.100000,-0.100000)"
fill="#000000" stroke="none">
<path d="M3850 6408 c-36 -3 -95 -11 -132 -18 -38 -6 -98 -15 -135 -21 -38 -5
-94 -14 -125 -19 -115 -19 -174 -29 -248 -40 -41 -6 -102 -15 -135 -20 -33 -6
-118 -19 -190 -30 -71 -11 -155 -25 -185 -30 -30 -5 -75 -12 -100 -15 -25 -4
-70 -11 -100 -15 -30 -5 -111 -18 -180 -29 -69 -10 -179 -28 -245 -39 -66 -12
-183 -30 -260 -42 -133 -20 -177 -27 -312 -50 -59 -9 -146 -23 -260 -40 -35
-6 -91 -14 -125 -20 -298 -45 -355 -68 -482 -196 -47 -47 -93 -102 -102 -122
-10 -20 -25 -46 -35 -57 -10 -11 -37 -76 -61 -145 l-43 -125 -3 -1694 c-2
-1686 -2 -1695 19 -1795 11 -56 27 -114 35 -130 8 -16 14 -33 14 -37 0 -17 50
-116 65 -129 8 -7 15 -18 15 -25 0 -25 178 -192 232 -219 86 -42 108 -47 348
-76 41 -5 108 -14 147 -20 186 -26 223 -31 288 -39 39 -4 95 -13 125 -19 30
-6 96 -16 145 -22 87 -10 140 -18 290 -39 39 -6 111 -15 160 -21 50 -6 115
-15 145 -20 30 -5 96 -14 145 -20 50 -6 119 -15 155 -20 36 -5 103 -14 150
-20 86 -11 166 -22 288 -40 37 -5 105 -14 152 -20 47 -6 114 -15 150 -20 36
-5 103 -14 150 -20 47 -6 114 -16 150 -22 70 -11 239 -6 305 9 22 5 85 31 140
57 86 41 111 59 184 133 46 47 74 71 62 55 -11 -17 -53 -60 -93 -96 -52 -49
-68 -70 -60 -78 6 -6 57 -13 114 -16 57 -2 108 -9 114 -14 17 -13 125 135 179
245 48 99 86 230 107 367 10 68 13 490 13 2080 0 1896 -1 2000 -18 2100 -43
242 -128 424 -268 571 l-54 57 -85 -7 c-79 -6 -85 -8 -84 -28 0 -21 0 -21 -25
-4 -34 23 -132 70 -173 82 -66 21 -203 34 -268 27z m552 -185 c32 -32 58 -63
58 -69 0 -6 7 -17 15 -24 8 -7 15 -17 15 -23 0 -5 -10 3 -22 19 -11 16 -48 57
-82 92 -76 78 -62 82 16 5z m108 -148 c7 -9 8 -15 2 -15 -5 0 -12 7 -16 15 -3
8 -4 15 -2 15 2 0 9 -7 16 -15z m21 -42 c13 -16 12 -17 -3 -4 -10 7 -18 15
-18 17 0 8 8 3 21 -13z m27 -63 c-2 -7 -10 1 -17 16 -12 27 -11 28 4 12 10 -9
16 -21 13 -28z m59 -252 c-3 -7 -5 -2 -5 12 0 14 2 19 5 13 2 -7 2 -19 0 -25z
m-1184 -1242 c141 -121 256 -222 255 -226 -2 -3 -293 -282 -648 -620 -355
-337 -697 -663 -760 -725 -234 -227 -338 -325 -343 -325 -3 0 -191 209 -417
466 -365 412 -410 467 -398 482 7 9 89 103 182 207 94 105 172 192 174 195 2
3 72 -67 155 -155 83 -88 185 -195 227 -238 l75 -78 608 626 c380 390 613 623
620 618 7 -4 128 -106 270 -227z m1127 -3180 c0 -2 -7 -9 -15 -16 -13 -11 -14
-10 -9 4 5 14 24 23 24 12z m-20 -40 c0 -2 -8 -10 -17 -17 -16 -13 -17 -12 -4
4 13 16 21 21 21 13z"/>
<path d="M5975 6414 c-114 -16 -642 -96 -652 -99 -7 -2 30 -46 81 -97 80 -80
100 -108 140 -189 25 -52 56 -133 68 -179 l23 -85 0 -2115 c0 -2006 -1 -2119
-18 -2192 -25 -105 -58 -187 -111 -272 -42 -67 -150 -181 -206 -218 -14 -9
-23 -18 -20 -20 3 -2 170 -26 371 -52 339 -44 371 -47 447 -36 301 41 521 247
610 569 l27 96 3 2040 c2 1446 0 2072 -8 2150 -21 209 -95 373 -229 505 -85
84 -194 148 -296 173 -66 17 -183 27 -230 21z"/>
</g>
</svg>
