<?xml version="1.0" standalone="no"?>
<!DOCTYPE svg PUBLIC "-//W3C//DTD SVG 20010904//EN"
 "http://www.w3.org/TR/2001/REC-SVG-20010904/DTD/svg10.dtd">
<svg version="1.0" xmlns="http://www.w3.org/2000/svg"
 width="725.000000pt" height="725.000000pt" viewBox="0 0 725.000000 725.000000"
 preserveAspectRatio="xMidYMid meet">
<metadata>
Created by potrace 1.14, written by Peter Selinger 2001-2017
</metadata>
<g transform="translate(0.000000,725.000000) scale(0.100000,-0.100000)"
fill="#000000" stroke="none">
<path d="M3820 6411 c0 -3 -10 -6 -22 -7 -22 -1 -62 -6 -133 -19 -16 -3 -48
-7 -70 -10 -38 -5 -130 -20 -140 -23 -3 -1 -6 -2 -7 -3 -2 0 -30 -3 -63 -6
-33 -2 -62 -8 -65 -11 -3 -4 -30 -9 -60 -11 -30 -2 -64 -5 -75 -8 -11 -3 -40
-8 -65 -12 -25 -4 -51 -11 -59 -15 -10 -6 -12 -5 -7 2 5 9 0 9 -20 2 -15 -6
-46 -13 -68 -15 -49 -4 -121 -14 -156 -22 -14 -3 -47 -9 -75 -13 -27 -5 -65
-11 -84 -14 -18 -3 -53 -7 -77 -8 -24 -2 -44 -5 -44 -8 0 -3 -15 -7 -32 -9
-37 -3 -45 -4 -108 -14 -25 -4 -58 -9 -75 -12 -111 -15 -170 -27 -184 -38 -10
-8 -13 -8 -8 0 5 8 -5 10 -35 6 -24 -3 -47 -9 -53 -13 -5 -3 -28 -8 -50 -9
-66 -5 -80 -7 -90 -12 -6 -3 -30 -7 -55 -8 -25 -2 -49 -6 -55 -9 -5 -3 -24 -7
-42 -9 -56 -5 -108 -11 -108 -13 0 -3 -40 -9 -73 -12 -18 -1 -36 -6 -38 -10
-3 -5 -8 -6 -12 -4 -4 2 -29 0 -57 -5 -63 -11 -143 -21 -172 -22 -13 -1 -23
-3 -23 -6 0 -4 -17 -7 -37 -9 -20 -1 -47 -4 -60 -7 -45 -10 -69 -14 -113 -20
-44 -5 -80 -12 -90 -15 -3 -1 -17 -1 -32 0 -14 1 -29 -3 -32 -9 -4 -6 -13 -8
-21 -4 -8 3 -15 0 -15 -7 0 -6 -4 -9 -9 -5 -5 3 -12 1 -16 -5 -3 -5 -15 -10
-26 -10 -11 0 -18 -4 -14 -9 3 -6 -3 -8 -14 -6 -11 2 -22 -3 -25 -11 -3 -8
-12 -14 -20 -14 -20 0 -176 -156 -196 -195 -8 -17 -18 -32 -21 -35 -14 -11
-69 -131 -64 -140 3 -4 1 -10 -5 -12 -5 -1 -11 -12 -13 -23 -2 -11 -7 -27 -10
-35 -3 -8 -14 -44 -24 -80 -16 -61 -17 -175 -19 -1728 -1 -934 3 -1684 8
-1710 5 -26 11 -65 14 -86 2 -21 8 -44 12 -50 7 -11 8 -16 10 -49 1 -10 6 -16
11 -13 4 3 7 -6 5 -19 -1 -14 2 -25 6 -25 5 0 12 -16 16 -35 3 -19 10 -35 15
-35 5 0 9 -5 9 -10 0 -10 48 -88 60 -100 3 -3 16 -21 28 -40 12 -19 22 -31 22
-27 0 4 6 2 14 -5 8 -7 12 -16 9 -20 -2 -5 1 -8 6 -8 6 0 24 -14 40 -30 37
-39 173 -110 211 -110 16 0 31 -4 35 -9 3 -5 28 -9 55 -8 28 1 50 -2 50 -7 0
-4 9 -6 20 -3 11 3 22 2 24 -2 4 -6 56 -12 134 -14 12 -1 22 -4 22 -8 0 -4 23
-7 50 -6 28 1 50 -1 50 -5 0 -4 8 -7 18 -7 9 0 31 -2 47 -5 17 -3 46 -6 65 -7
19 -2 40 -6 45 -10 6 -3 33 -7 60 -7 28 -1 61 -4 75 -7 25 -6 78 -13 135 -18
17 -2 35 -6 40 -8 6 -3 28 -7 50 -8 74 -5 103 -8 112 -14 5 -3 35 -7 67 -8 31
-1 59 -5 61 -9 2 -3 24 -7 49 -9 24 -1 55 -4 68 -7 13 -3 43 -7 68 -10 48 -5
128 -16 146 -19 6 -2 36 -6 66 -9 31 -4 65 -8 75 -11 11 -2 42 -4 69 -6 27 -1
54 -6 59 -10 6 -4 35 -8 65 -10 30 -1 66 -6 80 -10 14 -4 54 -10 90 -13 36 -3
79 -7 95 -11 17 -3 46 -7 65 -8 19 -2 40 -5 45 -8 6 -3 31 -7 57 -8 25 -1 57
-5 70 -8 13 -3 51 -6 85 -7 33 -1 59 -4 57 -8 -2 -3 19 -9 48 -12 29 -4 71 -9
93 -12 22 -3 56 -7 76 -9 20 -2 56 -7 80 -11 24 -4 104 -9 176 -11 113 -3 145
-1 213 18 44 11 80 24 80 28 0 4 16 13 35 20 27 9 39 10 50 1 11 -9 12 -7 9
12 -5 20 -4 21 6 5 6 -9 15 -15 21 -12 5 4 9 2 9 -4 0 -6 21 -10 46 -9 27 0
49 -5 54 -12 6 -10 8 -10 12 1 3 8 9 9 18 4 16 -10 29 -12 108 -16 28 -1 52
-5 52 -9 0 -4 17 -7 38 -7 73 -1 122 -7 122 -15 0 -11 323 -8 338 4 6 6 12 8
12 4 0 -4 13 0 29 8 16 9 31 12 34 9 4 -3 9 2 13 11 3 9 10 13 15 10 5 -3 6
-10 3 -16 -4 -7 -2 -8 5 -4 6 4 9 11 6 16 -2 4 9 13 25 20 36 15 89 11 340
-26 19 -3 54 -7 76 -10 23 -3 50 -6 61 -8 10 -2 46 -7 78 -11 33 -4 69 -10 80
-12 59 -14 250 -10 313 7 224 57 399 212 492 436 70 169 65 -14 65 2344 l0
2125 -23 80 c-45 160 -105 267 -204 366 -57 56 -177 139 -202 139 -8 0 -17 4
-20 9 -5 7 -30 15 -121 38 -52 13 -174 14 -248 3 -45 -7 -89 -14 -97 -15 -8
-1 -35 -5 -60 -9 -25 -4 -56 -9 -70 -11 -37 -5 -112 -17 -135 -21 -11 -2 -40
-6 -65 -9 -25 -4 -67 -10 -95 -15 -87 -17 -145 -13 -145 8 0 9 -3 13 -6 9 -3
-3 -21 3 -40 14 -19 10 -43 19 -54 19 -10 0 -22 5 -26 11 -3 6 -17 9 -30 6
-13 -2 -24 -1 -24 3 0 21 -296 16 -332 -6 -4 -2 -10 0 -13 6 -5 8 -11 8 -19 1
-7 -6 -23 -13 -37 -15 -13 -3 -24 -5 -24 -6 0 -2 -52 -7 -131 -14 -23 -2 -51
-9 -62 -15 -15 -8 -23 -8 -28 0 -4 7 -9 8 -13 1 -3 -5 -31 -12 -61 -15 -30 -3
-64 -8 -74 -13 -15 -6 -17 -4 -11 6 5 9 4 11 -4 6 -7 -4 -37 4 -67 19 -30 15
-63 28 -72 30 -9 2 -17 4 -17 6 0 1 -9 3 -20 4 -11 1 -36 6 -55 10 -43 9 -210
14 -210 6z"/>
</g>
</svg>
